<mxfile host="app.diagrams.net" agent="Mozilla/5.0 (Windows NT 10.0; Win64; x64) AppleWebKit/537.36 (KHTML, like Gecko) Chrome/139.0.0.0 Safari/537.36 Edg/139.0.0.0" version="28.1.0">
  <diagram name="第 1 页" id="gmm4JO4AYiCD-r01PVJd">
    <mxGraphModel dx="1430" dy="1017" grid="1" gridSize="10" guides="1" tooltips="1" connect="1" arrows="1" fold="1" page="1" pageScale="1" pageWidth="827" pageHeight="1169" math="0" shadow="0">
      <root>
        <mxCell id="0" />
        <mxCell id="1" parent="0" />
        <mxCell id="TQtAe7RpQK7zls-bQ8zk-2" value="&lt;div&gt;&lt;span style=&quot;background-color: transparent;&quot;&gt;&lt;font style=&quot;color: rgb(255, 51, 51);&quot;&gt;#if !defined(_TRACE_NVME_H) || defined(TRACE_HEADER_MULTI_READ)&lt;/font&gt;&lt;/span&gt;&lt;/div&gt;&lt;div&gt;&lt;div&gt;&lt;font style=&quot;color: rgb(255, 51, 51);&quot;&gt;#define _TRACE_NVME_H&lt;/font&gt;&lt;/div&gt;&lt;/div&gt;&lt;div&gt;&lt;br&gt;&lt;/div&gt;#include &amp;lt;linux/tracepoint.h&amp;gt;&lt;div&gt;&lt;br&gt;&lt;div&gt;// 声明使用的Tracepoint&lt;/div&gt;&lt;div&gt;...&lt;/div&gt;&lt;/div&gt;&lt;div&gt;&lt;font style=&quot;color: rgb(255, 51, 51);&quot;&gt;#endif&lt;/font&gt;&lt;/div&gt;&lt;div&gt;&lt;br&gt;&lt;/div&gt;&lt;div&gt;&lt;div&gt;#undef TRACE_INCLUDE_PATH&lt;/div&gt;&lt;div&gt;#define TRACE_INCLUDE_PATH .&lt;/div&gt;&lt;div&gt;#undef TRACE_INCLUDE_FILE&lt;/div&gt;&lt;div&gt;#define TRACE_INCLUDE_FILE trace&lt;/div&gt;&lt;/div&gt;&lt;div&gt;&lt;br&gt;&lt;/div&gt;&lt;div&gt;&lt;div&gt;&lt;font style=&quot;color: rgb(0, 204, 0);&quot;&gt;/* This part must be outside protection */&lt;/font&gt;&lt;/div&gt;&lt;div&gt;&lt;font style=&quot;color: rgb(0, 204, 0);&quot;&gt;#include &amp;lt;trace/define_trace.h&amp;gt;&lt;/font&gt;&lt;/div&gt;&lt;/div&gt;" style="text;html=1;align=left;verticalAlign=middle;whiteSpace=wrap;rounded=0;" parent="1" vertex="1">
          <mxGeometry x="140" y="200" width="430" height="260" as="geometry" />
        </mxCell>
        <mxCell id="TQtAe7RpQK7zls-bQ8zk-7" value="" style="shape=curlyBracket;whiteSpace=wrap;html=1;rounded=1;labelPosition=left;verticalLabelPosition=middle;align=right;verticalAlign=middle;" parent="1" vertex="1">
          <mxGeometry x="120" y="200" width="20" height="260" as="geometry" />
        </mxCell>
        <mxCell id="TQtAe7RpQK7zls-bQ8zk-8" value="trace.h" style="text;html=1;align=center;verticalAlign=middle;resizable=0;points=[];autosize=1;strokeColor=none;fillColor=none;" parent="1" vertex="1">
          <mxGeometry x="60" y="305" width="60" height="30" as="geometry" />
        </mxCell>
      </root>
    </mxGraphModel>
  </diagram>
</mxfile>
